<svg width="842" height="816" viewBox="0 0 842 816" fill="none" xmlns="http://www.w3.org/2000/svg">
<path d="M1 815.5L-21 736L49.5 701V635L124.5 588.5L194.5 529L216 433L283.5 387C293.991 354.31 301.181 233.38 287.911 244.828C281.422 257.732 279.01 262.072 283.5 252C285.17 248.254 286.635 245.929 287.911 244.828C308.161 204.562 368.116 80.9084 382 51.5L488.5 0.5C540.833 20.3333 596 11.5 691 51.5C701.787 56.0421 784.5 57.5 784.5 157C784.5 185.425 784.5 163 758.5 252C751.56 275.756 758.5 359.5 758.5 401.5C758.5 443.5 802.5 507 809 518C815.5 529 784.5 595.5 784.5 635V701L842 736L809 815.5H1Z" fill="#FFE100" fill-opacity="0.5"/>
</svg>
